<?xml version="1.0" encoding="UTF-8" standalone="no"?>
<!DOCTYPE svg PUBLIC "-//W3C//DTD SVG 1.1//EN"
 "http://www.w3.org/Graphics/SVG/1.1/DTD/svg11.dtd">
<!-- Generated by graphviz version 2.38.0 (20140413.2041)
 -->
<!-- Title: complex1 Pages: 1 -->
<svg width="203pt" height="613pt"
 viewBox="0.00 0.00 202.98 612.68" xmlns="http://www.w3.org/2000/svg" xmlns:xlink="http://www.w3.org/1999/xlink">
<g id="graph0" class="graph" transform="scale(1 1) rotate(0) translate(36 598.284)">
<title>complex1</title>
<polygon fill="white" stroke="none" points="-36,14.4 -36,-598.284 166.982,-598.284 166.982,14.4 -36,14.4"/>
<!-- alpha1 -->
<g id="node1" class="node"><title>alpha1</title>
<text text-anchor="start" x="88.7241" y="-534.885" font-family="Times,serif" font-size="14.00">α</text>
</g>
<!-- minus1 -->
<g id="node4" class="node"><title>minus1</title>
<ellipse fill="none" stroke="#9db5bd" cx="93" cy="-501.286" rx="9.8" ry="9.8"/>
<text text-anchor="start" x="89.0522" y="-497.086" font-family="Times,serif" font-size="14.00">−</text>
</g>
<!-- alpha1&#45;&gt;minus1 -->
<!-- alpha1&#45;&gt;minus1 -->
<g id="edge15" class="edge"><title>alpha1&#45;&gt;minus1</title>
<path fill="none" stroke="#9db5bd" d="M98.2668,-531.85C99.2861,-528.475 99.78,-524.122 99.7486,-519.798"/>
<polygon fill="#9db5bd" stroke="#9db5bd" points="103.206,-519.224 98.5886,-509.688 96.2513,-520.021 103.206,-519.224"/>
</g>
<!-- alpha2 -->
<g id="node2" class="node"><title>alpha2</title>
<text text-anchor="start" x="88.7241" y="-345.89" font-family="Times,serif" font-size="14.00">α</text>
</g>
<!-- minus2 -->
<g id="node5" class="node"><title>minus2</title>
<ellipse fill="none" stroke="#9db5bd" cx="93" cy="-312.291" rx="9.8" ry="9.8"/>
<text text-anchor="start" x="89.0522" y="-308.091" font-family="Times,serif" font-size="14.00">−</text>
</g>
<!-- alpha2&#45;&gt;minus2 -->
<!-- alpha2&#45;&gt;minus2 -->
<g id="edge17" class="edge"><title>alpha2&#45;&gt;minus2</title>
<path fill="none" stroke="#9db5bd" d="M98.2668,-342.855C99.2861,-339.48 99.78,-335.127 99.7486,-330.803"/>
<polygon fill="#9db5bd" stroke="#9db5bd" points="103.206,-330.229 98.5886,-320.693 96.2513,-331.026 103.206,-330.229"/>
</g>
<!-- alpha3 -->
<g id="node3" class="node"><title>alpha3</title>
<text text-anchor="start" x="88.7241" y="-156.895" font-family="Times,serif" font-size="14.00">α</text>
</g>
<!-- minus3 -->
<g id="node6" class="node"><title>minus3</title>
<ellipse fill="none" stroke="#9db5bd" cx="93" cy="-123.296" rx="9.8" ry="9.8"/>
<text text-anchor="start" x="89.0522" y="-119.096" font-family="Times,serif" font-size="14.00">−</text>
</g>
<!-- alpha3&#45;&gt;minus3 -->
<!-- alpha3&#45;&gt;minus3 -->
<g id="edge19" class="edge"><title>alpha3&#45;&gt;minus3</title>
<path fill="none" stroke="#9db5bd" d="M98.2668,-153.86C99.2861,-150.486 99.78,-146.132 99.7486,-141.808"/>
<polygon fill="#9db5bd" stroke="#9db5bd" points="103.206,-141.234 98.5886,-131.698 96.2513,-142.032 103.206,-141.234"/>
</g>
<!-- beta1 -->
<g id="node7" class="node"><title>beta1</title>
<text text-anchor="start" x="89.1069" y="-459.287" font-family="Times,serif" font-size="14.00">β</text>
</g>
<!-- minus1&#45;&gt;beta1 -->
<!-- times1 -->
<g id="node10" class="node"><title>times1</title>
<ellipse fill="none" stroke="#9db5bd" cx="93" cy="-425.688" rx="9.8" ry="9.8"/>
<text text-anchor="start" x="89.0522" y="-421.488" font-family="Times,serif" font-size="14.00">×</text>
</g>
<!-- minus1&#45;&gt;times1 -->
<g id="edge21" class="edge"><title>minus1&#45;&gt;times1</title>
<path fill="none" stroke="#9db5bd" d="M101.734,-495.994C110.475,-491.155 123.405,-482.381 129,-470.487 135.21,-457.286 122.161,-444.689 110.073,-436.422"/>
<polygon fill="#9db5bd" stroke="#9db5bd" points="111.693,-433.308 101.351,-431.006 108,-439.255 111.693,-433.308"/>
</g>
<!-- beta2 -->
<g id="node8" class="node"><title>beta2</title>
<text text-anchor="start" x="89.1069" y="-270.292" font-family="Times,serif" font-size="14.00">β</text>
</g>
<!-- minus2&#45;&gt;beta2 -->
<!-- times2 -->
<g id="node11" class="node"><title>times2</title>
<ellipse fill="none" stroke="#9db5bd" cx="93" cy="-236.693" rx="9.8" ry="9.8"/>
<text text-anchor="start" x="89.0522" y="-232.493" font-family="Times,serif" font-size="14.00">×</text>
</g>
<!-- minus2&#45;&gt;times2 -->
<g id="edge23" class="edge"><title>minus2&#45;&gt;times2</title>
<path fill="none" stroke="#9db5bd" d="M101.734,-307C110.475,-302.16 123.405,-293.386 129,-281.492 135.21,-268.291 122.161,-255.694 110.073,-247.427"/>
<polygon fill="#9db5bd" stroke="#9db5bd" points="111.693,-244.313 101.351,-242.011 108,-250.26 111.693,-244.313"/>
</g>
<!-- beta3 -->
<g id="node9" class="node"><title>beta3</title>
<text text-anchor="start" x="89.1069" y="-81.2975" font-family="Times,serif" font-size="14.00">β</text>
</g>
<!-- minus3&#45;&gt;beta3 -->
<!-- times3 -->
<g id="node12" class="node"><title>times3</title>
<ellipse fill="none" stroke="#9db5bd" cx="93" cy="-47.6985" rx="9.8" ry="9.8"/>
<text text-anchor="start" x="89.0522" y="-43.4985" font-family="Times,serif" font-size="14.00">×</text>
</g>
<!-- minus3&#45;&gt;times3 -->
<g id="edge25" class="edge"><title>minus3&#45;&gt;times3</title>
<path fill="none" stroke="#9db5bd" d="M101.734,-118.005C110.475,-113.165 123.405,-104.391 129,-92.4975 135.21,-79.296 122.161,-66.6991 110.073,-58.4321"/>
<polygon fill="#9db5bd" stroke="#9db5bd" points="111.693,-55.3181 101.351,-53.016 108,-61.2648 111.693,-55.3181"/>
</g>
<!-- beta1&#45;&gt;times1 -->
<!-- beta1&#45;&gt;times1 -->
<g id="edge22" class="edge"><title>beta1&#45;&gt;times1</title>
<path fill="none" stroke="#9db5bd" d="M98.2668,-456.252C99.2861,-452.877 99.78,-448.524 99.7486,-444.2"/>
<polygon fill="#9db5bd" stroke="#9db5bd" points="103.206,-443.626 98.5886,-434.09 96.2513,-444.423 103.206,-443.626"/>
</g>
<!-- beta2&#45;&gt;times2 -->
<!-- beta2&#45;&gt;times2 -->
<g id="edge24" class="edge"><title>beta2&#45;&gt;times2</title>
<path fill="none" stroke="#9db5bd" d="M98.2668,-267.257C99.2861,-263.882 99.78,-259.529 99.7486,-255.205"/>
<polygon fill="#9db5bd" stroke="#9db5bd" points="103.206,-254.631 98.5886,-245.095 96.2513,-255.429 103.206,-254.631"/>
</g>
<!-- beta3&#45;&gt;times3 -->
<!-- beta3&#45;&gt;times3 -->
<g id="edge26" class="edge"><title>beta3&#45;&gt;times3</title>
<path fill="none" stroke="#9db5bd" d="M98.2668,-78.2618C99.2861,-74.8875 99.78,-70.5339 99.7486,-66.2103"/>
<polygon fill="#9db5bd" stroke="#9db5bd" points="103.206,-65.6356 98.5886,-56.0998 96.2513,-66.4336 103.206,-65.6356"/>
</g>
<!-- plus -->
<g id="node13" class="node"><title>plus</title>
<ellipse fill="none" stroke="#9db5bd" cx="93" cy="-9.89949" rx="9.8" ry="9.8"/>
<text text-anchor="middle" x="93" y="-5.69949" font-family="Times,serif" font-size="14.00">+</text>
</g>
<!-- times1&#45;&gt;plus -->
<g id="edge27" class="edge"><title>times1&#45;&gt;plus</title>
<path fill="none" stroke="#9db5bd" d="M84.826,-420.091C76.5414,-415.002 63.9789,-406.027 57,-394.889 0.44092,-304.625 0,-268.616 0,-162.095 0,-162.095 0,-162.095 0,-122.296 0,-75.4011 49.1683,-37.8074 76.0032,-20.7819"/>
<polygon fill="#9db5bd" stroke="#9db5bd" points="78.0239,-23.6494 84.7469,-15.4608 74.3848,-17.6697 78.0239,-23.6494"/>
</g>
<!-- B -->
<g id="node15" class="node"><title>B</title>
<text text-anchor="middle" x="93" y="-383.689" font-family="Times,serif" font-size="14.00">B</text>
</g>
<!-- times1&#45;&gt;B -->
<!-- times2&#45;&gt;plus -->
<g id="edge28" class="edge"><title>times2&#45;&gt;plus</title>
<path fill="none" stroke="#9db5bd" d="M84.8989,-230.643C76.9106,-225.319 64.7975,-216.273 57,-205.894 44.2546,-188.93 38,-183.314 38,-162.095 38,-162.095 38,-162.095 38,-122.296 38,-84.3443 63.9846,-45.9356 80.2328,-25.6284"/>
<polygon fill="#9db5bd" stroke="#9db5bd" points="82.988,-27.7892 86.6908,-17.8625 77.6058,-23.3135 82.988,-27.7892"/>
</g>
<!-- C -->
<g id="node16" class="node"><title>C</title>
<text text-anchor="middle" x="93" y="-194.694" font-family="Times,serif" font-size="14.00">C</text>
</g>
<!-- times2&#45;&gt;C -->
<!-- times3&#45;&gt;plus -->
<g id="edge29" class="edge"><title>times3&#45;&gt;plus</title>
<path fill="none" stroke="#9db5bd" d="M93,-37.6649C93,-35.2725 93,-32.5974 93,-29.889"/>
<polygon fill="#9db5bd" stroke="#9db5bd" points="96.5001,-29.8062 93,-19.8062 89.5001,-29.8062 96.5001,-29.8062"/>
</g>
<!-- A -->
<g id="node14" class="node"><title>A</title>
<text text-anchor="middle" x="93" y="-572.684" font-family="Times,serif" font-size="14.00">A</text>
</g>
<!-- A&#45;&gt;alpha1 -->
<!-- A&#45;&gt;minus1 -->
<g id="edge16" class="edge"><title>A&#45;&gt;minus1</title>
<path fill="none" stroke="#9db5bd" d="M104.787,-569.835C113.258,-564.764 124.027,-556.657 129,-546.085 135.21,-532.884 122.161,-520.287 110.073,-512.02"/>
<polygon fill="#9db5bd" stroke="#9db5bd" points="111.693,-508.906 101.351,-506.604 108,-514.853 111.693,-508.906"/>
</g>
<!-- B&#45;&gt;alpha2 -->
<!-- B&#45;&gt;minus2 -->
<g id="edge18" class="edge"><title>B&#45;&gt;minus2</title>
<path fill="none" stroke="#9db5bd" d="M104.787,-380.84C113.258,-375.77 124.027,-367.662 129,-357.09 135.21,-343.889 122.161,-331.292 110.073,-323.025"/>
<polygon fill="#9db5bd" stroke="#9db5bd" points="111.693,-319.911 101.351,-317.609 108,-325.858 111.693,-319.911"/>
</g>
<!-- C&#45;&gt;alpha3 -->
<!-- C&#45;&gt;minus3 -->
<g id="edge20" class="edge"><title>C&#45;&gt;minus3</title>
<path fill="none" stroke="#9db5bd" d="M104.412,-191.79C117.478,-183.921 136.206,-169.415 129,-154.095 125.066,-145.733 117.506,-138.912 110.325,-133.918"/>
<polygon fill="#9db5bd" stroke="#9db5bd" points="112.077,-130.885 101.734,-128.588 108.387,-136.834 112.077,-130.885"/>
</g>
</g>
</svg>
