<?xml version="1.0" encoding="UTF-8" standalone="no"?>
<!DOCTYPE svg PUBLIC "-//W3C//DTD SVG 1.1//EN"
 "http://www.w3.org/Graphics/SVG/1.1/DTD/svg11.dtd">
<!-- Generated by graphviz version 2.38.0 (20140413.2041)
 -->
<!-- Title: complex2 Pages: 1 -->
<svg width="428pt" height="213pt"
 viewBox="0.00 0.00 428.00 212.90" xmlns="http://www.w3.org/2000/svg" xmlns:xlink="http://www.w3.org/1999/xlink">
<g id="graph0" class="graph" transform="scale(1 1) rotate(0) translate(36 198.495)">
<title>complex2</title>
<polygon fill="white" stroke="none" points="-36,14.4 -36,-198.495 392,-198.495 392,14.4 -36,14.4"/>
<g id="clust6" class="cluster"><title>clusterA</title>
<polygon fill="none" stroke="#f0e699" points="240,-29.799 240,-176.095 348,-176.095 348,-29.799 240,-29.799"/>
</g>
<g id="clust9" class="cluster"><title>clusterB</title>
<polygon fill="none" stroke="#f0e699" points="8,-29.799 8,-176.095 116,-176.095 116,-29.799 8,-29.799"/>
</g>
<g id="clust12" class="cluster"><title>clusterC</title>
<polygon fill="none" stroke="#f0e699" points="124,-29.799 124,-176.095 232,-176.095 232,-29.799 124,-29.799"/>
</g>
<!-- alpha1 -->
<g id="node1" class="node"><title>alpha1</title>
<text text-anchor="start" x="270.724" y="-119.096" font-family="Times,serif" font-size="14.00">α</text>
</g>
<!-- minus1 -->
<g id="node4" class="node"><title>minus1</title>
<ellipse fill="none" stroke="#9db5bd" cx="258" cy="-85.4975" rx="9.8" ry="9.8"/>
<text text-anchor="start" x="254.052" y="-81.2975" font-family="Times,serif" font-size="14.00">−</text>
</g>
<!-- alpha1&#45;&gt;minus1 -->
<!-- alpha1&#45;&gt;minus1 -->
<g id="edge3" class="edge"><title>alpha1&#45;&gt;minus1</title>
<path fill="none" stroke="#9db5bd" d="M277.306,-116.061C276.579,-111.854 274.312,-106.125 271.435,-100.829"/>
<polygon fill="#9db5bd" stroke="#9db5bd" points="274.194,-98.6523 265.798,-92.1897 268.331,-102.477 274.194,-98.6523"/>
</g>
<!-- alpha2 -->
<g id="node2" class="node"><title>alpha2</title>
<text text-anchor="start" x="38.7241" y="-119.096" font-family="Times,serif" font-size="14.00">α</text>
</g>
<!-- minus2 -->
<g id="node5" class="node"><title>minus2</title>
<ellipse fill="none" stroke="#9db5bd" cx="26" cy="-85.4975" rx="9.8" ry="9.8"/>
<text text-anchor="start" x="22.0522" y="-81.2975" font-family="Times,serif" font-size="14.00">−</text>
</g>
<!-- alpha2&#45;&gt;minus2 -->
<!-- alpha2&#45;&gt;minus2 -->
<g id="edge9" class="edge"><title>alpha2&#45;&gt;minus2</title>
<path fill="none" stroke="#9db5bd" d="M45.3057,-116.061C44.5787,-111.854 42.3122,-106.125 39.4353,-100.829"/>
<polygon fill="#9db5bd" stroke="#9db5bd" points="42.1939,-98.6523 33.7984,-92.1897 36.3314,-102.477 42.1939,-98.6523"/>
</g>
<!-- alpha3 -->
<g id="node3" class="node"><title>alpha3</title>
<text text-anchor="start" x="154.724" y="-119.096" font-family="Times,serif" font-size="14.00">α</text>
</g>
<!-- minus3 -->
<g id="node6" class="node"><title>minus3</title>
<ellipse fill="none" stroke="#9db5bd" cx="142" cy="-85.4975" rx="9.8" ry="9.8"/>
<text text-anchor="start" x="138.052" y="-81.2975" font-family="Times,serif" font-size="14.00">−</text>
</g>
<!-- alpha3&#45;&gt;minus3 -->
<!-- alpha3&#45;&gt;minus3 -->
<g id="edge15" class="edge"><title>alpha3&#45;&gt;minus3</title>
<path fill="none" stroke="#9db5bd" d="M161.306,-116.061C160.579,-111.854 158.312,-106.125 155.435,-100.829"/>
<polygon fill="#9db5bd" stroke="#9db5bd" points="158.194,-98.6523 149.798,-92.1897 152.331,-102.477 158.194,-98.6523"/>
</g>
<!-- times1 -->
<g id="node10" class="node"><title>times1</title>
<ellipse fill="none" stroke="#9db5bd" cx="258" cy="-47.6985" rx="9.8" ry="9.8"/>
<text text-anchor="start" x="254.052" y="-43.4985" font-family="Times,serif" font-size="14.00">×</text>
</g>
<!-- minus1&#45;&gt;times1 -->
<g id="edge5" class="edge"><title>minus1&#45;&gt;times1</title>
<path fill="none" stroke="#9db5bd" d="M258,-75.4639C258,-73.0715 258,-70.3964 258,-67.688"/>
<polygon fill="#9db5bd" stroke="#9db5bd" points="261.5,-67.6051 258,-57.6052 254.5,-67.6052 261.5,-67.6051"/>
</g>
<!-- times2 -->
<g id="node11" class="node"><title>times2</title>
<ellipse fill="none" stroke="#9db5bd" cx="81" cy="-47.6985" rx="9.8" ry="9.8"/>
<text text-anchor="start" x="77.0522" y="-43.4985" font-family="Times,serif" font-size="14.00">×</text>
</g>
<!-- minus2&#45;&gt;times2 -->
<g id="edge11" class="edge"><title>minus2&#45;&gt;times2</title>
<path fill="none" stroke="#9db5bd" d="M34.1154,-79.2152C41.9957,-74.086 54.1967,-66.1445 64.1768,-59.6486"/>
<polygon fill="#9db5bd" stroke="#9db5bd" points="66.3795,-62.391 72.8513,-54.0024 62.5609,-56.5242 66.3795,-62.391"/>
</g>
<!-- times3 -->
<g id="node12" class="node"><title>times3</title>
<ellipse fill="none" stroke="#9db5bd" cx="169" cy="-47.6985" rx="9.8" ry="9.8"/>
<text text-anchor="start" x="165.052" y="-43.4985" font-family="Times,serif" font-size="14.00">×</text>
</g>
<!-- minus3&#45;&gt;times3 -->
<g id="edge17" class="edge"><title>minus3&#45;&gt;times3</title>
<path fill="none" stroke="#9db5bd" d="M147.726,-76.9054C150.447,-73.2983 153.806,-68.8439 157.045,-64.549"/>
<polygon fill="#9db5bd" stroke="#9db5bd" points="160.055,-66.371 163.282,-56.2796 154.466,-62.1559 160.055,-66.371"/>
</g>
<!-- beta1 -->
<g id="node7" class="node"><title>beta1</title>
<text text-anchor="start" x="309.107" y="-81.2975" font-family="Times,serif" font-size="14.00">β</text>
</g>
<!-- beta1&#45;&gt;times1 -->
<g id="edge6" class="edge"><title>beta1&#45;&gt;times1</title>
<path fill="none" stroke="#9db5bd" d="M303.42,-78.2618C295.479,-73.0934 284.008,-65.627 274.581,-59.4909"/>
<polygon fill="#9db5bd" stroke="#9db5bd" points="276.332,-56.4545 266.042,-53.9327 272.513,-62.3212 276.332,-56.4545"/>
</g>
<!-- beta2 -->
<g id="node8" class="node"><title>beta2</title>
<text text-anchor="start" x="77.1069" y="-81.2975" font-family="Times,serif" font-size="14.00">β</text>
</g>
<!-- beta2&#45;&gt;times2 -->
<g id="edge12" class="edge"><title>beta2&#45;&gt;times2</title>
<path fill="none" stroke="#9db5bd" d="M81,-78.2618C81,-75.3283 81,-71.6544 81,-67.9037"/>
<polygon fill="#9db5bd" stroke="#9db5bd" points="84.5001,-67.6801 81,-57.6801 77.5001,-67.6801 84.5001,-67.6801"/>
</g>
<!-- beta3 -->
<g id="node9" class="node"><title>beta3</title>
<text text-anchor="start" x="193.107" y="-81.2975" font-family="Times,serif" font-size="14.00">β</text>
</g>
<!-- beta3&#45;&gt;times3 -->
<g id="edge18" class="edge"><title>beta3&#45;&gt;times3</title>
<path fill="none" stroke="#9db5bd" d="M192.123,-78.2618C189.031,-74.3091 184.888,-69.0124 180.964,-63.9946"/>
<polygon fill="#9db5bd" stroke="#9db5bd" points="183.707,-61.8203 174.789,-56.0998 178.193,-66.1329 183.707,-61.8203"/>
</g>
<!-- plus -->
<g id="node13" class="node"><title>plus</title>
<ellipse fill="none" stroke="#9db5bd" cx="169" cy="-9.89949" rx="9.8" ry="9.8"/>
<text text-anchor="middle" x="169" y="-5.69949" font-family="Times,serif" font-size="14.00">+</text>
</g>
<!-- times1&#45;&gt;plus -->
<g id="edge19" class="edge"><title>times1&#45;&gt;plus</title>
<path fill="none" stroke="#9db5bd" d="M251.133,-40.322C247.01,-36.7882 241.51,-32.5633 236,-29.799 220.998,-22.2728 202.555,-17.3504 188.82,-14.4216"/>
<polygon fill="#9db5bd" stroke="#9db5bd" points="189.456,-10.9798 178.969,-12.4886 188.108,-17.8488 189.456,-10.9798"/>
</g>
<!-- times2&#45;&gt;plus -->
<g id="edge20" class="edge"><title>times2&#45;&gt;plus</title>
<path fill="none" stroke="#9db5bd" d="M89.6315,-42.838C97.506,-39.3449 109.483,-34.1038 120,-29.799 129.947,-25.7277 141.122,-21.3987 150.286,-17.9125"/>
<polygon fill="#9db5bd" stroke="#9db5bd" points="151.806,-21.0797 159.925,-14.2731 149.334,-14.531 151.806,-21.0797"/>
</g>
<!-- times3&#45;&gt;plus -->
<g id="edge21" class="edge"><title>times3&#45;&gt;plus</title>
<path fill="none" stroke="#9db5bd" d="M169,-37.6649C169,-35.2725 169,-32.5974 169,-29.889"/>
<polygon fill="#9db5bd" stroke="#9db5bd" points="172.5,-29.8062 169,-19.8062 165.5,-29.8062 172.5,-29.8062"/>
</g>
<!-- A -->
<g id="node14" class="node"><title>A</title>
<text text-anchor="middle" x="275" y="-156.895" font-family="Times,serif" font-size="14.00">A</text>
</g>
<!-- A&#45;&gt;alpha1 -->
<!-- A&#45;&gt;minus1 -->
<g id="edge4" class="edge"><title>A&#45;&gt;minus1</title>
<path fill="none" stroke="#9db5bd" d="M286.376,-154.043C299.909,-146.001 319.648,-131.08 311,-116.296 308.965,-112.817 290.489,-102.881 275.916,-95.4314"/>
<polygon fill="#9db5bd" stroke="#9db5bd" points="277.206,-92.1619 266.702,-90.7816 274.053,-98.4113 277.206,-92.1619"/>
</g>
<!-- B -->
<g id="node15" class="node"><title>B</title>
<text text-anchor="middle" x="43" y="-156.895" font-family="Times,serif" font-size="14.00">B</text>
</g>
<!-- B&#45;&gt;alpha2 -->
<!-- B&#45;&gt;minus2 -->
<g id="edge10" class="edge"><title>B&#45;&gt;minus2</title>
<path fill="none" stroke="#9db5bd" d="M54.3764,-154.043C67.9089,-146.001 87.6478,-131.08 79,-116.296 76.9646,-112.817 58.4887,-102.881 43.9165,-95.4314"/>
<polygon fill="#9db5bd" stroke="#9db5bd" points="45.2062,-92.1619 34.7016,-90.7816 42.0527,-98.4113 45.2062,-92.1619"/>
</g>
<!-- C -->
<g id="node16" class="node"><title>C</title>
<text text-anchor="middle" x="159" y="-156.895" font-family="Times,serif" font-size="14.00">C</text>
</g>
<!-- C&#45;&gt;alpha3 -->
<!-- C&#45;&gt;minus3 -->
<g id="edge16" class="edge"><title>C&#45;&gt;minus3</title>
<path fill="none" stroke="#9db5bd" d="M170.376,-154.043C183.909,-146.001 203.648,-131.08 195,-116.296 192.965,-112.817 174.489,-102.881 159.916,-95.4314"/>
<polygon fill="#9db5bd" stroke="#9db5bd" points="161.206,-92.1619 150.702,-90.7816 158.053,-98.4113 161.206,-92.1619"/>
</g>
</g>
</svg>
