<?xml version="1.0" encoding="UTF-8" standalone="no"?>
<!DOCTYPE svg PUBLIC "-//W3C//DTD SVG 1.1//EN"
 "http://www.w3.org/Graphics/SVG/1.1/DTD/svg11.dtd">
<!-- Generated by graphviz version 2.38.0 (20140413.2041)
 -->
<!-- Title: complex3 Pages: 1 -->
<svg width="270pt" height="129pt"
 viewBox="0.00 0.00 270.00 129.50" xmlns="http://www.w3.org/2000/svg" xmlns:xlink="http://www.w3.org/1999/xlink">
<g id="graph0" class="graph" transform="scale(1 1) rotate(0) translate(36 115.098)">
<title>complex3</title>
<polygon fill="white" stroke="none" points="-36,14.4 -36,-115.098 234,-115.098 234,14.4 -36,14.4"/>
<!-- f1 -->
<g id="node1" class="node"><title>f1</title>
<polygon fill="none" stroke="#9db5bd" points="172,-65.799 144,-65.799 144,-37.799 172,-37.799 172,-65.799"/>
<text text-anchor="middle" x="158" y="-47.599" font-family="Times,serif" font-size="14.00">f</text>
</g>
<!-- plus -->
<g id="node4" class="node"><title>plus</title>
<ellipse fill="none" stroke="#9db5bd" cx="99" cy="-9.89949" rx="9.8" ry="9.8"/>
<text text-anchor="middle" x="99" y="-5.69949" font-family="Times,serif" font-size="14.00">+</text>
</g>
<!-- f1&#45;&gt;plus -->
<g id="edge4" class="edge"><title>f1&#45;&gt;plus</title>
<path fill="none" stroke="#9db5bd" d="M143.718,-41.1404C135.112,-35.3206 124.127,-27.8916 115.198,-21.8534"/>
<polygon fill="#9db5bd" stroke="#9db5bd" points="117.068,-18.8928 106.823,-16.1901 113.146,-24.6913 117.068,-18.8928"/>
</g>
<!-- f2 -->
<g id="node2" class="node"><title>f2</title>
<polygon fill="none" stroke="#9db5bd" points="54,-65.799 26,-65.799 26,-37.799 54,-37.799 54,-65.799"/>
<text text-anchor="middle" x="40" y="-47.599" font-family="Times,serif" font-size="14.00">f</text>
</g>
<!-- f2&#45;&gt;plus -->
<g id="edge5" class="edge"><title>f2&#45;&gt;plus</title>
<path fill="none" stroke="#9db5bd" d="M54.2823,-41.1404C62.8882,-35.3206 73.8735,-27.8916 82.8023,-21.8534"/>
<polygon fill="#9db5bd" stroke="#9db5bd" points="84.8537,-24.6913 91.1767,-16.1901 80.9323,-18.8928 84.8537,-24.6913"/>
</g>
<!-- f3 -->
<g id="node3" class="node"><title>f3</title>
<polygon fill="none" stroke="#9db5bd" points="113,-65.799 85,-65.799 85,-37.799 113,-37.799 113,-65.799"/>
<text text-anchor="middle" x="99" y="-47.599" font-family="Times,serif" font-size="14.00">f</text>
</g>
<!-- f3&#45;&gt;plus -->
<g id="edge6" class="edge"><title>f3&#45;&gt;plus</title>
<path fill="none" stroke="#9db5bd" d="M99,-37.7344C99,-35.2799 99,-32.6668 99,-30.0713"/>
<polygon fill="#9db5bd" stroke="#9db5bd" points="102.5,-29.9533 99,-19.9533 95.5001,-29.9533 102.5,-29.9533"/>
</g>
<!-- A -->
<g id="node5" class="node"><title>A</title>
<text text-anchor="middle" x="171" y="-89.4985" font-family="Times,serif" font-size="14.00">A</text>
</g>
<!-- A&#45;&gt;f1 -->
<g id="edge1" class="edge"><title>A&#45;&gt;f1</title>
<path fill="none" stroke="#9db5bd" d="M168.969,-86.4642C168,-83.4916 166.775,-79.7317 165.497,-75.81"/>
<polygon fill="#9db5bd" stroke="#9db5bd" points="168.755,-74.5087 162.329,-66.0849 162.099,-76.6773 168.755,-74.5087"/>
</g>
<!-- B -->
<g id="node6" class="node"><title>B</title>
<text text-anchor="middle" x="27" y="-89.4985" font-family="Times,serif" font-size="14.00">B</text>
</g>
<!-- B&#45;&gt;f2 -->
<g id="edge2" class="edge"><title>B&#45;&gt;f2</title>
<path fill="none" stroke="#9db5bd" d="M29.0312,-86.4642C29.9998,-83.4916 31.2248,-79.7317 32.5026,-75.81"/>
<polygon fill="#9db5bd" stroke="#9db5bd" points="35.901,-76.6773 35.6712,-66.0849 29.2454,-74.5087 35.901,-76.6773"/>
</g>
<!-- C -->
<g id="node7" class="node"><title>C</title>
<text text-anchor="middle" x="99" y="-89.4985" font-family="Times,serif" font-size="14.00">C</text>
</g>
<!-- C&#45;&gt;f3 -->
<g id="edge3" class="edge"><title>C&#45;&gt;f3</title>
<path fill="none" stroke="#9db5bd" d="M99,-86.4642C99,-83.5766 99,-79.9459 99,-76.1458"/>
<polygon fill="#9db5bd" stroke="#9db5bd" points="102.5,-76.0849 99,-66.0849 95.5001,-76.085 102.5,-76.0849"/>
</g>
</g>
</svg>
