<?xml version="1.0" encoding="UTF-8" standalone="no"?>
<!DOCTYPE svg PUBLIC "-//W3C//DTD SVG 1.1//EN"
 "http://www.w3.org/Graphics/SVG/1.1/DTD/svg11.dtd">
<!-- Generated by graphviz version 2.38.0 (20140413.2041)
 -->
<!-- Title: taxcalc Pages: 1 -->
<svg width="378pt" height="92pt"
 viewBox="0.00 0.00 378.00 92.34" xmlns="http://www.w3.org/2000/svg" xmlns:xlink="http://www.w3.org/1999/xlink">
<g id="graph0" class="graph" transform="scale(1 1) rotate(0) translate(36 77.94)">
<title>taxcalc</title>
<polygon fill="white" stroke="none" points="-36,14.4 -36,-77.94 342,-77.94 342,14.4 -36,14.4"/>
<!-- 21000 -->
<g id="node1" class="node"><title>21000</title>
<polygon fill="none" stroke="#3a6b7b" points="54,-38.6517 0,-38.6517 0,-2.65166 54,-2.65166 54,-38.6517"/>
<text text-anchor="middle" x="27" y="-16.4517" font-family="Times,serif" font-size="14.00">21000</text>
</g>
<!-- − -->
<g id="node3" class="node"><title>−</title>
<ellipse fill="none" stroke="#3a6b7b" cx="162" cy="-20.6517" rx="18" ry="18"/>
<text text-anchor="middle" x="162" y="-16.4517" font-family="Times,serif" font-size="14.00">−</text>
</g>
<!-- 21000&#45;&gt;− -->
<g id="edge1" class="edge"><title>21000&#45;&gt;−</title>
<path fill="none" stroke="#3a6b7b" d="M51.9057,-45.3529C58.0119,-49.9808 64.8603,-54.1472 72,-56.6517 94.6471,-64.5958 103.827,-65.8361 126,-56.6517 136.289,-52.3897 145.171,-43.6022 151.538,-35.7764"/>
<polygon fill="#3a6b7b" stroke="#3a6b7b" points="54.0145,-42.5549 44.0815,-38.8689 49.5479,-47.9447 54.0145,-42.5549"/>
</g>
<!-- 11000 -->
<g id="node2" class="node"><title>11000</title>
<polygon fill="none" stroke="#3a6b7b" points="126,-38.6517 72,-38.6517 72,-2.65166 126,-2.65166 126,-38.6517"/>
<text text-anchor="middle" x="99" y="-16.4517" font-family="Times,serif" font-size="14.00">11000</text>
</g>
<!-- 11000&#45;&gt;− -->
<g id="edge2" class="edge"><title>11000:se&#45;&gt;−</title>
<path fill="none" stroke="#3a6b7b" d="M135.717,-0C140.235,-0.992667 144.989,-4.23895 149.141,-7.87284"/>
<polygon fill="#3a6b7b" stroke="#3a6b7b" points="134.726,3.35756 126,-2.65166 136.569,-3.39551 134.726,3.35756"/>
</g>
<!--  0.20  -->
<g id="node4" class="node"><title> 0.20 </title>
<polygon fill="none" stroke="#3a6b7b" points="252,-38.6517 198,-38.6517 198,-2.65166 252,-2.65166 252,-38.6517"/>
<text text-anchor="middle" x="225" y="-16.4517" font-family="Times,serif" font-size="14.00"> 0.20 </text>
</g>
<!-- −&#45;&gt; 0.20  -->
<!-- × -->
<g id="node5" class="node"><title>×</title>
<ellipse fill="none" stroke="#3a6b7b" cx="288" cy="-20.6517" rx="18" ry="18"/>
<text text-anchor="middle" x="288" y="-16.4517" font-family="Times,serif" font-size="14.00">×</text>
</g>
<!-- −&#45;&gt;× -->
<g id="edge4" class="edge"><title>−&#45;&gt;×</title>
<path fill="none" stroke="#3a6b7b" d="M179.134,-43.2274C184.518,-48.6525 190.926,-53.7216 198,-56.6517 220.173,-65.8361 229.827,-65.8361 252,-56.6517 262.289,-52.3897 271.171,-43.6022 277.538,-35.7764"/>
<polygon fill="#3a6b7b" stroke="#3a6b7b" points="181.74,-40.8913 172.462,-35.7764 176.526,-45.561 181.74,-40.8913"/>
</g>
<!--  0.20 &#45;&gt;× -->
<g id="edge3" class="edge"><title> 0.20 :se&#45;&gt;×</title>
<path fill="none" stroke="#3a6b7b" d="M261.717,-0C266.235,-0.992667 270.989,-4.23895 275.141,-7.87284"/>
<polygon fill="#3a6b7b" stroke="#3a6b7b" points="260.726,3.35756 252,-2.65166 262.569,-3.39551 260.726,3.35756"/>
</g>
</g>
</svg>
