<?xml version="1.0" encoding="UTF-8" standalone="no"?>
<!DOCTYPE svg PUBLIC "-//W3C//DTD SVG 1.1//EN"
 "http://www.w3.org/Graphics/SVG/1.1/DTD/svg11.dtd">
<!-- Generated by graphviz version 2.38.0 (20140413.2041)
 -->
<!-- Title: taxcalc Pages: 1 -->
<svg width="274pt" height="209pt"
 viewBox="0.00 0.00 273.71 208.80" xmlns="http://www.w3.org/2000/svg" xmlns:xlink="http://www.w3.org/1999/xlink">
<g id="graph0" class="graph" transform="scale(1 1) rotate(0) translate(36 194.4)">
<title>taxcalc</title>
<polygon fill="white" stroke="none" points="-36,14.4 -36,-194.4 237.714,-194.4 237.714,14.4 -36,14.4"/>
<!-- − -->
<g id="node1" class="node"><title>−</title>
<ellipse fill="none" stroke="#3a6b7b" cx="111.714" cy="-90" rx="18" ry="18"/>
<text text-anchor="middle" x="111.714" y="-85.8" font-family="Times,serif" font-size="14.00">−</text>
<text text-anchor="start" x="0" y="-110.8" font-family="Times,serif" font-size="14.00" fill="#9db5bd">Built&#45;in function</text>
</g>
<!-- 21000 -->
<g id="node2" class="node"><title>21000</title>
<polygon fill="none" stroke="#3a6b7b" points="102.714,-36 48.7139,-36 48.7139,-0 102.714,-0 102.714,-36"/>
<text text-anchor="middle" x="75.7139" y="-13.8" font-family="Times,serif" font-size="14.00">21000</text>
<text text-anchor="start" x="16.8379" y="-38.8" font-family="Times,serif" font-size="14.00" fill="#9db5bd">Value</text>
</g>
<!-- −&#45;&gt;21000 -->
<g id="edge1" class="edge"><title>−&#45;&gt;21000</title>
<path fill="none" stroke="#3a6b7b" d="M103.724,-73.4647C99.4985,-65.2479 94.1934,-54.9325 89.34,-45.4952"/>
<polygon fill="#3a6b7b" stroke="#3a6b7b" points="92.3798,-43.753 84.6937,-36.4609 86.1548,-46.9545 92.3798,-43.753"/>
</g>
<!-- 11000 -->
<g id="node3" class="node"><title>11000</title>
<polygon fill="none" stroke="#3a6b7b" points="174.714,-36 120.714,-36 120.714,-0 174.714,-0 174.714,-36"/>
<text text-anchor="middle" x="147.714" y="-13.8" font-family="Times,serif" font-size="14.00">11000</text>
</g>
<!-- −&#45;&gt;11000 -->
<g id="edge2" class="edge"><title>−&#45;&gt;11000</title>
<path fill="none" stroke="#3a6b7b" d="M119.703,-73.4647C123.929,-65.2479 129.234,-54.9325 134.088,-45.4952"/>
<polygon fill="#3a6b7b" stroke="#3a6b7b" points="137.273,-46.9545 138.734,-36.4609 131.048,-43.753 137.273,-46.9545"/>
</g>
<!-- × -->
<g id="node4" class="node"><title>×</title>
<ellipse fill="none" stroke="#3a6b7b" cx="142.714" cy="-162" rx="18" ry="18"/>
<text text-anchor="middle" x="142.714" y="-157.8" font-family="Times,serif" font-size="14.00">×</text>
</g>
<!-- ×&#45;&gt;− -->
<g id="edge3" class="edge"><title>×&#45;&gt;−</title>
<path fill="none" stroke="#3a6b7b" d="M135.679,-145.116C131.874,-136.524 127.088,-125.715 122.794,-116.021"/>
<polygon fill="#3a6b7b" stroke="#3a6b7b" points="125.97,-114.547 118.72,-106.821 119.57,-117.382 125.97,-114.547"/>
</g>
<!--  0.20  -->
<g id="node5" class="node"><title> 0.20 </title>
<polygon fill="none" stroke="#3a6b7b" points="201.714,-108 147.714,-108 147.714,-72 201.714,-72 201.714,-108"/>
<text text-anchor="middle" x="174.714" y="-85.8" font-family="Times,serif" font-size="14.00"> 0.20 </text>
</g>
<!-- ×&#45;&gt; 0.20  -->
<g id="edge4" class="edge"><title>×&#45;&gt; 0.20 </title>
<path fill="none" stroke="#3a6b7b" d="M149.975,-145.116C153.698,-136.973 158.331,-126.838 162.577,-117.548"/>
<polygon fill="#3a6b7b" stroke="#3a6b7b" points="165.834,-118.842 166.809,-108.292 159.468,-115.932 165.834,-118.842"/>
</g>
</g>
</svg>
