<?xml version="1.0" encoding="UTF-8" standalone="no"?>
<!DOCTYPE svg PUBLIC "-//W3C//DTD SVG 1.1//EN"
 "http://www.w3.org/Graphics/SVG/1.1/DTD/svg11.dtd">
<!-- Generated by graphviz version 2.38.0 (20140413.2041)
 -->
<!-- Title: languages Pages: 1 -->
<svg width="414pt" height="173pt"
 viewBox="0.00 0.00 414.34 172.80" xmlns="http://www.w3.org/2000/svg" xmlns:xlink="http://www.w3.org/1999/xlink">
<g id="graph0" class="graph" transform="scale(1 1) rotate(0) translate(36 158.4)">
<title>languages</title>
<polygon fill="white" stroke="none" points="-36,14.4 -36,-158.4 378.337,-158.4 378.337,14.4 -36,14.4"/>
<!-- cell -->
<g id="node1" class="node"><title>cell</title>
<polygon fill="none" stroke="#9db5bd" points="54,-90 0,-90 0,-54 54,-54 54,-90"/>
<text text-anchor="middle" x="27" y="-67.8" font-family="Times,serif" font-size="14.00">cell</text>
</g>
<!-- nocell -->
<g id="node2" class="node"><title>nocell</title>
<polygon fill="none" stroke="#9db5bd" points="144,-90 90,-90 90,-54 144,-54 144,-90"/>
<text text-anchor="middle" x="117" y="-67.8" font-family="Times,serif" font-size="14.00">nocell</text>
</g>
<!-- cell&#45;&gt;nocell -->
<g id="edge1" class="edge"><title>cell&#45;&gt;nocell</title>
<path fill="none" stroke="#9db5bd" d="M54.4029,-72C62.3932,-72 71.3106,-72 79.8241,-72"/>
<polygon fill="#9db5bd" stroke="#9db5bd" points="79.919,-75.5001 89.919,-72 79.919,-68.5001 79.919,-75.5001"/>
</g>
<!-- grid -->
<g id="node3" class="node"><title>grid</title>
<polygon fill="none" stroke="#9db5bd" points="234,-90 180,-90 180,-54 234,-54 234,-90"/>
<text text-anchor="middle" x="207" y="-67.8" font-family="Times,serif" font-size="14.00">grid</text>
</g>
<!-- nocell&#45;&gt;grid -->
<g id="edge2" class="edge"><title>nocell&#45;&gt;grid</title>
<path fill="none" stroke="#9db5bd" d="M144.403,-72C152.393,-72 161.311,-72 169.824,-72"/>
<polygon fill="#9db5bd" stroke="#9db5bd" points="169.919,-75.5001 179.919,-72 169.919,-68.5001 169.919,-75.5001"/>
</g>
<!-- Excel -->
<g id="node4" class="node"><title>Excel</title>
<ellipse fill="none" stroke="#9db5bd" cx="306.168" cy="-126" rx="27" ry="18"/>
<text text-anchor="middle" x="306.168" y="-123" font-family="Times,serif" font-size="10.00">Excel</text>
</g>
<!-- grid&#45;&gt;Excel -->
<g id="edge3" class="edge"><title>grid&#45;&gt;Excel</title>
<path fill="none" stroke="#9db5bd" d="M234.039,-86.471C247.011,-93.6799 262.738,-102.42 276.102,-109.847"/>
<polygon fill="#9db5bd" stroke="#9db5bd" points="274.472,-112.945 284.913,-114.744 277.873,-106.827 274.472,-112.945"/>
</g>
<!-- LibreOffice -->
<g id="node5" class="node"><title>LibreOffice</title>
<ellipse fill="none" stroke="#9db5bd" cx="306.168" cy="-72" rx="36.3376" ry="18"/>
<text text-anchor="middle" x="306.168" y="-69" font-family="Times,serif" font-size="10.00">LibreOffice</text>
</g>
<!-- grid&#45;&gt;LibreOffice -->
<g id="edge4" class="edge"><title>grid&#45;&gt;LibreOffice</title>
<path fill="none" stroke="#9db5bd" d="M234.039,-72C241.959,-72 250.905,-72 259.714,-72"/>
<polygon fill="#9db5bd" stroke="#9db5bd" points="259.921,-75.5001 269.921,-72 259.921,-68.5001 259.921,-75.5001"/>
</g>
<!-- ... -->
<g id="node6" class="node"><title>...</title>
<ellipse fill="none" stroke="#9db5bd" cx="306.168" cy="-18" rx="27" ry="18"/>
<text text-anchor="middle" x="306.168" y="-15" font-family="Times,serif" font-size="10.00">...</text>
</g>
<!-- grid&#45;&gt;... -->
<g id="edge5" class="edge"><title>grid&#45;&gt;...</title>
<path fill="none" stroke="#9db5bd" d="M234.039,-57.529C247.011,-50.3201 262.738,-41.5801 276.102,-34.1533"/>
<polygon fill="#9db5bd" stroke="#9db5bd" points="277.873,-37.1735 284.913,-29.2565 274.472,-31.0549 277.873,-37.1735"/>
</g>
</g>
</svg>
