<?xml version="1.0" encoding="UTF-8" standalone="no"?>
<!DOCTYPE svg PUBLIC "-//W3C//DTD SVG 1.1//EN"
 "http://www.w3.org/Graphics/SVG/1.1/DTD/svg11.dtd">
<!-- Generated by graphviz version 2.38.0 (20140413.2041)
 -->
<!-- Title: languageswithp Pages: 1 -->
<svg width="496pt" height="109pt"
 viewBox="0.00 0.00 496.43 109.02" xmlns="http://www.w3.org/2000/svg" xmlns:xlink="http://www.w3.org/1999/xlink">
<g id="graph0" class="graph" transform="scale(1 1) rotate(0) translate(36 94.6155)">
<title>languageswithp</title>
<polygon fill="white" stroke="none" points="-36,14.4 -36,-94.6155 460.431,-94.6155 460.431,14.4 -36,14.4"/>
<!-- cell -->
<g id="node1" class="node"><title>cell</title>
<polygon fill="none" stroke="#9db5bd" points="54,-80.2155 0,-80.2155 0,-44.2155 54,-44.2155 54,-80.2155"/>
<text text-anchor="middle" x="27" y="-58.0155" font-family="Times,serif" font-size="14.00">cell</text>
</g>
<!-- nocell -->
<g id="node2" class="node"><title>nocell</title>
<polygon fill="none" stroke="#9db5bd" points="244.431,-80.2155 190.431,-80.2155 190.431,-44.2155 244.431,-44.2155 244.431,-80.2155"/>
<text text-anchor="middle" x="217.431" y="-58.0155" font-family="Times,serif" font-size="14.00">nocell</text>
</g>
<!-- cell&#45;&gt;nocell -->
<g id="edge1" class="edge"><title>cell&#45;&gt;nocell</title>
<path fill="none" stroke="#9db5bd" d="M54.1101,-67.8976C65.1281,-70.0214 78.13,-72.1707 90,-73.2155 118.526,-75.7264 125.905,-75.7264 154.431,-73.2155 162.87,-72.4727 171.881,-71.1717 180.344,-69.7184"/>
<polygon fill="#9db5bd" stroke="#9db5bd" points="181.112,-73.1362 190.321,-67.8976 179.855,-66.25 181.112,-73.1362"/>
</g>
<!-- Bugs? -->
<g id="node5" class="node"><title>Bugs?</title>
<ellipse fill="none" stroke="#9db5bd" cx="122.215" cy="-32.2155" rx="32.4324" ry="32.4324"/>
<text text-anchor="middle" x="122.215" y="-28.0155" font-family="Times,serif" font-size="14.00">Bugs?</text>
</g>
<!-- cell&#45;&gt;Bugs? -->
<g id="edge4" class="edge"><title>cell&#45;&gt;Bugs?</title>
<path fill="none" stroke="#9db5bd" d="M54.4625,-53.6989C62.9215,-50.9765 72.4767,-47.9013 81.6583,-44.9464"/>
<polygon fill="#9db5bd" stroke="#9db5bd" points="82.9582,-48.2049 91.4051,-41.8095 80.8136,-41.5415 82.9582,-48.2049"/>
</g>
<!-- grid -->
<g id="node3" class="node"><title>grid</title>
<polygon fill="none" stroke="#9db5bd" points="334.431,-80.2155 280.431,-80.2155 280.431,-44.2155 334.431,-44.2155 334.431,-80.2155"/>
<text text-anchor="middle" x="307.431" y="-58.0155" font-family="Times,serif" font-size="14.00">grid</text>
</g>
<!-- nocell&#45;&gt;grid -->
<g id="edge2" class="edge"><title>nocell&#45;&gt;grid</title>
<path fill="none" stroke="#9db5bd" d="M244.834,-62.2155C252.824,-62.2155 261.742,-62.2155 270.255,-62.2155"/>
<polygon fill="#9db5bd" stroke="#9db5bd" points="270.35,-65.7156 280.35,-62.2155 270.35,-58.7156 270.35,-65.7156"/>
</g>
<!-- Excel -->
<g id="node4" class="node"><title>Excel</title>
<polygon fill="none" stroke="#9db5bd" points="424.431,-80.2155 370.431,-80.2155 370.431,-44.2155 424.431,-44.2155 424.431,-80.2155"/>
<text text-anchor="middle" x="397.431" y="-58.0155" font-family="Times,serif" font-size="14.00">Excel</text>
</g>
<!-- grid&#45;&gt;Excel -->
<g id="edge3" class="edge"><title>grid&#45;&gt;Excel</title>
<path fill="none" stroke="#9db5bd" d="M334.834,-62.2155C342.824,-62.2155 351.742,-62.2155 360.255,-62.2155"/>
<polygon fill="#9db5bd" stroke="#9db5bd" points="360.35,-65.7156 370.35,-62.2155 360.35,-58.7156 360.35,-65.7156"/>
</g>
<!-- Bugs?&#45;&gt;nocell -->
<g id="edge5" class="edge"><title>Bugs?&#45;&gt;nocell</title>
<path fill="none" stroke="#9db5bd" d="M153.223,-41.8728C161.978,-44.6905 171.632,-47.7975 180.703,-50.7171"/>
<polygon fill="#9db5bd" stroke="#9db5bd" points="179.657,-54.057 190.248,-53.789 181.801,-47.3936 179.657,-54.057"/>
</g>
</g>
</svg>
