<?xml version="1.0" encoding="UTF-8" standalone="no"?>
<!DOCTYPE svg PUBLIC "-//W3C//DTD SVG 1.1//EN"
 "http://www.w3.org/Graphics/SVG/1.1/DTD/svg11.dtd">
<!-- Generated by graphviz version 2.38.0 (20140413.2041)
 -->
<!-- Title: languageswithp Pages: 1 -->
<svg width="513pt" height="173pt"
 viewBox="0.00 0.00 512.97 172.80" xmlns="http://www.w3.org/2000/svg" xmlns:xlink="http://www.w3.org/1999/xlink">
<g id="graph0" class="graph" transform="scale(1 1) rotate(0) translate(36 158.4)">
<title>languageswithp</title>
<polygon fill="white" stroke="none" points="-36,14.4 -36,-158.4 476.972,-158.4 476.972,14.4 -36,14.4"/>
<!-- cell+ -->
<g id="node1" class="node"><title>cell+</title>
<polygon fill="none" stroke="#9db5bd" points="54,-90 0,-90 0,-54 54,-54 54,-90"/>
<text text-anchor="middle" x="27" y="-67.8" font-family="Times,serif" font-size="14.00">cell+</text>
</g>
<!-- nocell+ -->
<g id="node2" class="node"><title>nocell+</title>
<polygon fill="none" stroke="#9db5bd" points="148.154,-90 89.9486,-90 89.9486,-54 148.154,-54 148.154,-90"/>
<text text-anchor="middle" x="119.051" y="-67.8" font-family="Times,serif" font-size="14.00">nocell+</text>
</g>
<!-- cell+&#45;&gt;nocell+ -->
<g id="edge1" class="edge"><title>cell+&#45;&gt;nocell+</title>
<path fill="none" stroke="#9db5bd" d="M54.0466,-72C62.0233,-72 70.9727,-72 79.5939,-72"/>
<polygon fill="#9db5bd" stroke="#9db5bd" points="79.8596,-75.5001 89.8595,-72 79.8595,-68.5001 79.8596,-75.5001"/>
</g>
<!-- grid -->
<g id="node3" class="node"><title>grid</title>
<polygon fill="none" stroke="#9db5bd" points="332.635,-90 278.635,-90 278.635,-54 332.635,-54 332.635,-90"/>
<text text-anchor="middle" x="305.635" y="-67.8" font-family="Times,serif" font-size="14.00">grid</text>
</g>
<!-- nocell+&#45;&gt;grid -->
<g id="edge2" class="edge"><title>nocell+&#45;&gt;grid</title>
<path fill="none" stroke="#9db5bd" d="M148.411,-74.1525C159.533,-74.8968 172.409,-75.6352 184.103,-76 210.104,-76.8111 216.634,-76.8379 242.635,-76 250.989,-75.7308 259.967,-75.258 268.425,-74.7297"/>
<polygon fill="#9db5bd" stroke="#9db5bd" points="268.661,-78.2218 278.407,-74.0675 268.198,-71.2371 268.661,-78.2218"/>
</g>
<!-- PPL -->
<g id="node4" class="node"><title>PPL</title>
<polygon fill="none" stroke="#9db5bd" points="242.403,-49 227.886,-67 198.852,-67 184.334,-49 198.852,-31 227.886,-31 242.403,-49"/>
<text text-anchor="middle" x="213.369" y="-44.8" font-family="Times,serif" font-size="14.00">PPL</text>
</g>
<!-- nocell+&#45;&gt;PPL -->
<g id="edge3" class="edge"><title>nocell+&#45;&gt;PPL</title>
<path fill="none" stroke="#9db5bd" d="M148.251,-64.9743C158.034,-62.5369 169.093,-59.7818 179.237,-57.2545"/>
<polygon fill="#9db5bd" stroke="#9db5bd" points="180.138,-60.6371 188.995,-54.8234 178.445,-53.8448 180.138,-60.6371"/>
</g>
<!-- Excel -->
<g id="node5" class="node"><title>Excel</title>
<ellipse fill="none" stroke="#9db5bd" cx="404.804" cy="-126" rx="27" ry="18"/>
<text text-anchor="middle" x="404.804" y="-123" font-family="Times,serif" font-size="10.00">Excel</text>
</g>
<!-- grid&#45;&gt;Excel -->
<g id="edge5" class="edge"><title>grid&#45;&gt;Excel</title>
<path fill="none" stroke="#9db5bd" d="M332.675,-86.471C345.646,-93.6799 361.373,-102.42 374.737,-109.847"/>
<polygon fill="#9db5bd" stroke="#9db5bd" points="373.107,-112.945 383.549,-114.744 376.508,-106.827 373.107,-112.945"/>
</g>
<!-- LibreOffice -->
<g id="node6" class="node"><title>LibreOffice</title>
<ellipse fill="none" stroke="#9db5bd" cx="404.804" cy="-72" rx="36.3376" ry="18"/>
<text text-anchor="middle" x="404.804" y="-69" font-family="Times,serif" font-size="10.00">LibreOffice</text>
</g>
<!-- grid&#45;&gt;LibreOffice -->
<g id="edge6" class="edge"><title>grid&#45;&gt;LibreOffice</title>
<path fill="none" stroke="#9db5bd" d="M332.675,-72C340.594,-72 349.54,-72 358.349,-72"/>
<polygon fill="#9db5bd" stroke="#9db5bd" points="358.556,-75.5001 368.556,-72 358.556,-68.5001 358.556,-75.5001"/>
</g>
<!-- ... -->
<g id="node7" class="node"><title>...</title>
<ellipse fill="none" stroke="#9db5bd" cx="404.804" cy="-18" rx="27" ry="18"/>
<text text-anchor="middle" x="404.804" y="-15" font-family="Times,serif" font-size="10.00">...</text>
</g>
<!-- grid&#45;&gt;... -->
<g id="edge7" class="edge"><title>grid&#45;&gt;...</title>
<path fill="none" stroke="#9db5bd" d="M332.675,-57.529C345.646,-50.3201 361.373,-41.5801 374.737,-34.1533"/>
<polygon fill="#9db5bd" stroke="#9db5bd" points="376.508,-37.1735 383.549,-29.2565 373.107,-31.0549 376.508,-37.1735"/>
</g>
<!-- PPL&#45;&gt;grid -->
<g id="edge4" class="edge"><title>PPL&#45;&gt;grid</title>
<path fill="none" stroke="#9db5bd" d="M238.085,-55.043C247.409,-57.4187 258.321,-60.199 268.58,-62.813"/>
<polygon fill="#9db5bd" stroke="#9db5bd" points="267.983,-66.2728 278.538,-65.3503 269.712,-59.4895 267.983,-66.2728"/>
</g>
</g>
</svg>
